# Blender v2.76 (sub 0) OBJ File: 'target.blend'
# www.blender.org
mtllib target.mtl
o Circle
v 0.000000 0.000000 -0.987679
v -0.192687 0.000000 -0.968701
v -0.377969 0.000000 -0.912497
v -0.548725 0.000000 -0.821225
v -0.698395 0.000000 -0.698395
v -0.821225 0.000000 -0.548725
v -0.912497 0.000000 -0.377969
v -0.968701 0.000000 -0.192687
v -0.987679 0.000000 -0.000000
v -0.968701 0.000000 0.192687
v -0.912497 0.000000 0.377968
v -0.821225 0.000000 0.548725
v -0.698395 0.000000 0.698395
v -0.548725 0.000000 0.821225
v -0.377968 0.000000 0.912497
v -0.192686 0.000000 0.968701
v 0.000000 0.000000 0.987679
v 0.192687 0.000000 0.968701
v 0.377969 0.000000 0.912497
v 0.548726 0.000000 0.821225
v 0.698395 0.000000 0.698394
v 0.821226 0.000000 0.548725
v 0.912497 0.000000 0.377968
v 0.968701 0.000000 0.192686
v 0.987679 0.000000 -0.000001
v 0.968701 0.000000 -0.192688
v 0.912496 0.000000 -0.377970
v 0.821225 0.000000 -0.548726
v 0.698394 0.000000 -0.698396
v 0.548724 0.000000 -0.821226
v 0.377967 0.000000 -0.912497
v 0.192685 0.000000 -0.968702
v 0.000000 0.163139 -0.987679
v -0.192687 0.163139 -0.968701
v -0.377969 0.163139 -0.912497
v -0.548725 0.163139 -0.821225
v -0.698395 0.163139 -0.698395
v -0.821225 0.163139 -0.548725
v -0.912497 0.163139 -0.377969
v -0.968701 0.163139 -0.192687
v -0.987679 0.163139 -0.000000
v -0.968701 0.163139 0.192687
v -0.912497 0.163139 0.377968
v -0.821225 0.163139 0.548725
v -0.698395 0.163139 0.698395
v -0.548725 0.163139 0.821225
v -0.377968 0.163139 0.912497
v -0.192686 0.163139 0.968701
v 0.000000 0.163139 0.987679
v 0.192687 0.163139 0.968701
v 0.377969 0.163139 0.912497
v 0.548726 0.163139 0.821225
v 0.698395 0.163139 0.698394
v 0.821226 0.163139 0.548725
v 0.912497 0.163139 0.377968
v 0.968701 0.163139 0.192686
v 0.987679 0.163139 -0.000001
v 0.968701 0.163139 -0.192688
v 0.912496 0.163139 -0.377970
v 0.821225 0.163139 -0.548726
v 0.698394 0.163139 -0.698396
v 0.548724 0.163139 -0.821226
v 0.377967 0.163139 -0.912497
v 0.192685 0.163139 -0.968702
v 0.000000 -0.021983 0.133088
v 0.025964 -0.021983 0.130531
v 0.050931 -0.021983 0.122957
v 0.073940 -0.021983 0.110659
v 0.094107 -0.021983 0.094107
v 0.110659 -0.021983 0.073940
v 0.122957 -0.021983 0.050931
v 0.130531 -0.021983 0.025964
v 0.133088 -0.021983 0.000000
v 0.130531 -0.021983 -0.025964
v 0.122957 -0.021983 -0.050931
v 0.110659 -0.021983 -0.073940
v 0.094107 -0.021983 -0.094107
v 0.073940 -0.021983 -0.110659
v 0.050931 -0.021983 -0.122957
v 0.025964 -0.021983 -0.130531
v -0.000000 -0.021983 -0.133088
v -0.025964 -0.021983 -0.130531
v -0.050931 -0.021983 -0.122957
v -0.073940 -0.021983 -0.110658
v -0.094107 -0.021983 -0.094107
v -0.110659 -0.021983 -0.073940
v -0.122957 -0.021983 -0.050930
v -0.130531 -0.021983 -0.025964
v -0.133088 -0.021983 0.000000
v -0.130531 -0.021983 0.025964
v -0.122957 -0.021983 0.050931
v -0.110658 -0.021983 0.073940
v -0.094107 -0.021983 0.094107
v -0.073940 -0.021983 0.110659
v -0.050930 -0.021983 0.122957
v -0.025964 -0.021983 0.130531
v 0.737507 0.325965 0.412667
vt 0.263161 0.056906
vt 0.354155 0.019215
vt 0.519652 0.564785
vt 0.888375 0.818731
vt 0.818731 0.888375
vt 0.457052 0.447667
vt 0.450754 0.000000
vt 0.506636 0.567374
vt 0.736839 0.943094
vt 0.468086 0.440294
vt 0.549245 0.000000
vt 0.493364 0.567374
vt 0.645844 0.980785
vt 0.480348 0.435215
vt 0.645844 0.019215
vt 0.480348 0.564785
vt 0.549245 1.000000
vt 0.493364 0.432626
vt 0.736839 0.056906
vt 0.468086 0.559706
vt 0.450754 1.000000
vt 0.506636 0.432626
vt 0.818731 0.111625
vt 0.457052 0.552333
vt 0.354155 0.980785
vt 0.519652 0.435215
vt 0.888375 0.181268
vt 0.447667 0.542948
vt 0.263161 0.943094
vt 0.531914 0.440294
vt 0.943094 0.263161
vt 0.440294 0.531914
vt 0.000000 0.549246
vt 0.000000 0.450754
vt 0.567374 0.506636
vt 0.181268 0.888375
vt 0.542948 0.447667
vt 0.980785 0.354155
vt 0.435215 0.519652
vt 0.019215 0.354156
vt 0.564785 0.519652
vt 0.111624 0.818731
vt 0.552333 0.457052
vt 1.000000 0.450754
vt 0.432626 0.506636
vt 0.056906 0.263161
vt 0.559706 0.531914
vt 0.056905 0.736838
vt 0.559706 0.468086
vt 1.000000 0.549246
vt 0.432626 0.493364
vt 0.111624 0.181269
vt 0.552333 0.542948
vt 0.019215 0.645844
vt 0.564785 0.480348
vt 0.980785 0.645845
vt 0.435215 0.480348
vt 0.181268 0.111625
vt 0.542948 0.552333
vt 0.567374 0.493364
vt 0.943094 0.736839
vt 0.440294 0.468086
vt 0.531914 0.559706
vt 0.447667 0.457052
vt 1.000000 0.000000
vt 1.000000 1.000000
vt 0.000000 1.000000
vt 0.000000 0.000000
vn 0.156700 0.986500 0.047500
vn -0.126600 0.986500 -0.103900
vn 0.162900 0.986500 0.016000
vn -0.144400 0.986500 -0.077200
vn 0.162900 0.986500 -0.016000
vn -0.156700 0.986500 -0.047500
vn 0.156700 0.986500 -0.047500
vn -0.162900 0.986500 -0.016000
vn 0.144400 0.986500 -0.077200
vn -0.162900 0.986500 0.016000
vn 0.126600 0.986500 -0.103900
vn -0.156700 0.986500 0.047500
vn 0.103900 0.986500 -0.126600
vn -0.144400 0.986500 0.077200
vn 0.077200 0.986500 -0.144400
vn 0.016000 0.986500 0.162900
vn -0.126600 0.986500 0.103900
vn 0.047500 0.986500 -0.156700
vn 0.047500 0.986500 0.156700
vn -0.103900 0.986500 0.126600
vn 0.016000 0.986500 -0.162900
vn 0.077200 0.986500 0.144400
vn -0.077200 0.986500 0.144400
vn -0.016000 0.986500 -0.162900
vn 0.103900 0.986500 0.126600
vn -0.047500 0.986500 0.156700
vn -0.047500 0.986500 -0.156700
vn 0.126600 0.986500 0.103900
vn -0.016000 0.986500 0.162900
vn -0.077200 0.986500 -0.144400
vn 0.144400 0.986500 0.077200
vn -0.103900 0.986500 -0.126600
vn -0.156700 -0.986500 -0.047500
vn 0.126600 -0.986500 0.103900
vn -0.162900 -0.986500 -0.016000
vn 0.144400 -0.986500 0.077200
vn -0.162900 -0.986500 0.016000
vn 0.156700 -0.986500 0.047500
vn -0.156700 -0.986500 0.047500
vn 0.162900 -0.986500 0.016000
vn -0.144400 -0.986500 0.077200
vn 0.162900 -0.986500 -0.016000
vn -0.126600 -0.986500 0.103900
vn 0.156700 -0.986500 -0.047500
vn -0.103900 -0.986500 0.126600
vn 0.144400 -0.986500 -0.077200
vn -0.077200 -0.986500 0.144400
vn -0.016000 -0.986500 -0.162900
vn 0.126600 -0.986500 -0.103900
vn -0.047500 -0.986500 0.156700
vn -0.047500 -0.986500 -0.156700
vn 0.103900 -0.986500 -0.126600
vn -0.016000 -0.986500 0.162900
vn -0.077200 -0.986500 -0.144400
vn 0.077200 -0.986500 -0.144400
vn 0.016000 -0.986500 0.162900
vn -0.103900 -0.986500 -0.126600
vn 0.047500 -0.986500 -0.156700
vn 0.047500 -0.986500 0.156700
vn -0.126600 -0.986500 -0.103900
vn 0.016000 -0.986500 -0.162900
vn 0.077200 -0.986500 0.144400
vn -0.144400 -0.986500 -0.077200
vn 0.103900 -0.986500 0.126600
vn -0.773000 0.000000 0.634400
vn 0.956900 0.000000 -0.290300
vn -0.634400 0.000000 0.773000
vn 0.881900 0.000000 -0.471400
vn -0.471400 0.000000 0.881900
vn -0.098000 0.000000 -0.995200
vn 0.773000 0.000000 -0.634400
vn -0.290300 0.000000 0.956900
vn -0.290300 0.000000 -0.956900
vn 0.634400 0.000000 -0.773000
vn -0.098000 0.000000 0.995200
vn -0.471400 0.000000 -0.881900
vn 0.471400 0.000000 -0.881900
vn 0.098000 0.000000 0.995200
vn -0.634400 0.000000 -0.773000
vn 0.290300 0.000000 -0.956900
vn 0.290300 0.000000 0.956900
vn -0.773000 0.000000 -0.634400
vn 0.098000 0.000000 -0.995200
vn 0.471400 0.000000 0.881900
vn -0.881900 0.000000 -0.471400
vn 0.634400 0.000000 0.773000
vn -0.956900 0.000000 -0.290300
vn 0.773000 0.000000 0.634400
vn -0.995200 0.000000 -0.098000
vn 0.881900 0.000000 0.471400
vn -0.995200 0.000000 0.098000
vn 0.956900 0.000000 0.290300
vn -0.956900 0.000000 0.290300
vn 0.995200 0.000000 0.098000
vn -0.881900 0.000000 0.471400
vn 0.995200 0.000000 -0.098000
usemtl Material.001
s off
f 39/1/1 40/2/1 72/3/1
f 53/4/2 54/5/2 86/6/2
f 40/2/3 41/7/3 73/8/3
f 54/5/4 55/9/4 87/10/4
f 41/7/5 42/11/5 74/12/5
f 55/9/6 56/13/6 88/14/6
f 42/11/7 43/15/7 75/16/7
f 56/13/8 57/17/8 89/18/8
f 43/15/9 44/19/9 76/20/9
f 57/17/10 58/21/10 90/22/10
f 44/19/11 45/23/11 77/24/11
f 58/21/12 59/25/12 91/26/12
f 45/23/13 46/27/13 78/28/13
f 59/25/14 60/29/14 92/30/14
f 46/27/15 47/31/15 79/32/15
f 33/33/16 34/34/16 66/35/16
f 60/29/17 61/36/17 93/37/17
f 47/31/18 48/38/18 80/39/18
f 34/34/19 35/40/19 67/41/19
f 61/36/20 62/42/20 94/43/20
f 48/38/21 49/44/21 81/45/21
f 35/40/22 36/46/22 68/47/22
f 62/42/23 63/48/23 95/49/23
f 49/44/24 50/50/24 82/51/24
f 36/46/25 37/52/25 69/53/25
f 63/48/26 64/54/26 96/55/26
f 50/50/27 51/56/27 83/57/27
f 37/52/28 38/58/28 70/59/28
f 64/54/29 33/33/29 65/60/29
f 51/56/30 52/61/30 84/62/30
f 38/58/31 39/1/31 71/63/31
f 52/61/32 53/4/32 85/64/32
f 71/63/33 39/1/33 72/3/33
f 85/64/34 53/4/34 86/6/34
f 72/3/35 40/2/35 73/8/35
f 86/6/36 54/5/36 87/10/36
f 73/8/37 41/7/37 74/12/37
f 87/10/38 55/9/38 88/14/38
f 74/12/39 42/11/39 75/16/39
f 88/14/40 56/13/40 89/18/40
f 75/16/41 43/15/41 76/20/41
f 89/18/42 57/17/42 90/22/42
f 76/20/43 44/19/43 77/24/43
f 90/22/44 58/21/44 91/26/44
f 77/24/45 45/23/45 78/28/45
f 91/26/46 59/25/46 92/30/46
f 78/28/47 46/27/47 79/32/47
f 65/60/48 33/33/48 66/35/48
f 92/30/49 60/29/49 93/37/49
f 79/32/50 47/31/50 80/39/50
f 66/35/51 34/34/51 67/41/51
f 93/37/52 61/36/52 94/43/52
f 80/39/53 48/38/53 81/45/53
f 67/41/54 35/40/54 68/47/54
f 94/43/55 62/42/55 95/49/55
f 81/45/56 49/44/56 82/51/56
f 68/47/57 36/46/57 69/53/57
f 95/49/58 63/48/58 96/55/58
f 82/51/59 50/50/59 83/57/59
f 69/53/60 37/52/60 70/59/60
f 96/55/61 64/54/61 65/60/61
f 83/57/62 51/56/62 84/62/62
f 70/59/63 38/58/63 71/63/63
f 84/62/64 52/61/64 85/64/64
usemtl Material.001_NONE
f 13/65/65 45/66/65 44/67/65
f 27/65/66 59/66/66 58/67/66
f 14/65/67 46/66/67 45/67/67
f 28/65/68 60/66/68 59/67/68
f 15/65/69 47/66/69 46/67/69
f 2/65/70 34/66/70 33/67/70
f 29/65/71 61/66/71 60/67/71
f 16/65/72 48/66/72 47/67/72
f 3/65/73 35/66/73 34/67/73
f 30/65/74 62/66/74 61/67/74
f 17/65/75 49/66/75 48/67/75
f 4/65/76 36/66/76 35/67/76
f 31/65/77 63/66/77 62/67/77
f 18/65/78 50/66/78 49/67/78
f 5/65/79 37/66/79 36/67/79
f 32/65/80 64/66/80 63/67/80
f 19/65/81 51/66/81 50/67/81
f 6/65/82 38/66/82 37/67/82
f 1/65/83 33/66/83 64/67/83
f 20/65/84 52/66/84 51/67/84
f 7/65/85 39/66/85 38/67/85
f 21/65/86 53/66/86 52/67/86
f 8/65/87 40/66/87 39/67/87
f 22/65/88 54/66/88 53/67/88
f 9/65/89 41/66/89 40/67/89
f 23/65/90 55/66/90 54/67/90
f 10/65/91 42/66/91 41/67/91
f 24/65/92 56/66/92 55/67/92
f 11/65/93 43/66/93 42/67/93
f 25/65/94 57/66/94 56/67/94
f 12/65/95 44/66/95 43/67/95
f 26/65/96 58/66/96 57/67/96
f 12/68/65 13/65/65 44/67/65
f 26/68/66 27/65/66 58/67/66
f 13/68/67 14/65/67 45/67/67
f 27/68/68 28/65/68 59/67/68
f 14/68/69 15/65/69 46/67/69
f 1/68/70 2/65/70 33/67/70
f 28/68/71 29/65/71 60/67/71
f 15/68/72 16/65/72 47/67/72
f 2/68/73 3/65/73 34/67/73
f 29/68/74 30/65/74 61/67/74
f 16/68/75 17/65/75 48/67/75
f 3/68/76 4/65/76 35/67/76
f 30/68/77 31/65/77 62/67/77
f 17/68/78 18/65/78 49/67/78
f 4/68/79 5/65/79 36/67/79
f 31/68/80 32/65/80 63/67/80
f 18/68/81 19/65/81 50/67/81
f 5/68/82 6/65/82 37/67/82
f 32/68/83 1/65/83 64/67/83
f 19/68/84 20/65/84 51/67/84
f 6/68/85 7/65/85 38/67/85
f 20/68/86 21/65/86 52/67/86
f 7/68/87 8/65/87 39/67/87
f 21/68/88 22/65/88 53/67/88
f 8/68/89 9/65/89 40/67/89
f 22/68/90 23/65/90 54/67/90
f 9/68/91 10/65/91 41/67/91
f 23/68/92 24/65/92 55/67/92
f 10/68/93 11/65/93 42/67/93
f 24/68/94 25/65/94 56/67/94
f 11/68/95 12/65/95 43/67/95
f 25/68/96 26/65/96 57/67/96
