# Blender v2.74 (sub 0) OBJ File: ''
# www.blender.org
mtllib vegetation.mtl
o ground
v 0.000000 0.250000 1.000000
v 0.500000 0.250000 0.866000
v 0.866000 0.250000 0.500000
v 1.000000 0.250000 0.000000
v 0.866000 0.250000 -0.500000
v 0.500000 0.250000 -0.866000
v 0.000000 0.250000 -1.000000
v -0.500000 0.250000 -0.866000
v -0.866000 0.250000 -0.500000
v -1.000000 0.250000 0.000000
v -0.866000 0.250000 0.500000
v -0.500000 0.250000 0.866000
v 0.000000 -0.250000 1.000000
v 0.500000 -0.250000 0.866000
v 0.866000 -0.250000 0.500000
v 1.000000 -0.250000 0.000000
v 0.866000 -0.250000 -0.500000
v 0.500000 -0.250000 -0.866000
v 0.000000 -0.250000 -1.000000
v -0.500000 -0.250000 -0.866000
v -0.866000 -0.250000 -0.500000
v -1.000000 -0.250000 0.000000
v -0.866000 -0.250000 0.500000
v -0.500000 -0.250000 0.866000
v 0.000000 0.250000 0.000000
v 0.000000 -0.250000 0.000000
vt 0.000000 1.000000
vt 0.000000 0.000000
vt 0.083333 0.000000
vt 0.083333 1.000000
vt 0.166667 0.000000
vt 0.166667 1.000000
vt 0.250000 0.000000
vt 0.250000 1.000000
vt 0.333333 0.000000
vt 0.333333 1.000000
vt 0.416667 0.000000
vt 0.416667 1.000000
vt 0.500000 0.000000
vt 0.500000 1.000000
vt 0.583333 0.000000
vt 0.583333 1.000000
vt 0.666667 0.000000
vt 0.666667 1.000000
vt 0.750000 0.000000
vt 0.750000 1.000000
vt 0.833333 0.000000
vt 0.833333 1.000000
vt 0.916667 0.000000
vt 0.916667 1.000000
vt 1.000000 0.000000
vt 1.000000 1.000000
vn 0.258900 0.000000 0.965900
vn 0.707100 0.000000 0.707100
vn 0.965900 0.000000 0.258900
vn 0.965900 0.000000 -0.258900
vn 0.707100 0.000000 -0.707100
vn 0.258900 0.000000 -0.965900
vn -0.258900 0.000000 -0.965900
vn -0.707100 0.000000 -0.707100
vn -0.965900 0.000000 -0.258900
vn -0.965900 0.000000 0.258900
vn -0.707100 0.000000 0.707100
vn -0.258900 0.000000 0.965900
vn 0.000000 1.000000 0.000000
vn 0.000000 -1.000000 0.000000
usemtl groundDefault
s off
f 1/1/1 13/2/1 14/3/1 2/4/1
f 2/4/2 14/3/2 15/5/2 3/6/2
f 3/6/3 15/5/3 16/7/3 4/8/3
f 4/8/4 16/7/4 17/9/4 5/10/4
f 5/10/5 17/9/5 18/11/5 6/12/5
f 6/12/6 18/11/6 19/13/6 7/14/6
f 7/14/7 19/13/7 20/15/7 8/16/7
f 8/16/8 20/15/8 21/17/8 9/18/8
f 9/18/9 21/17/9 22/19/9 10/20/9
f 10/20/10 22/19/10 23/21/10 11/22/10
f 11/22/11 23/21/11 24/23/11 12/24/11
f 12/24/12 24/23/12 13/25/12 1/26/12
f 1/1/13 2/4/13 25/2/13
f 2/4/13 3/6/13 25/2/13
f 3/6/13 4/8/13 25/2/13
f 4/8/13 5/10/13 25/2/13
f 5/10/13 6/12/13 25/2/13
f 6/12/13 7/14/13 25/2/13
f 7/14/13 8/16/13 25/2/13
f 8/16/13 9/18/13 25/2/13
f 9/18/13 10/20/13 25/2/13
f 10/20/13 11/22/13 25/2/13
f 11/22/13 12/24/13 25/2/13
f 12/24/13 1/26/13 25/2/13
f 14/3/14 13/2/14 26/1/14
f 15/5/14 14/3/14 26/1/14
f 16/7/14 15/5/14 26/1/14
f 17/9/14 16/7/14 26/1/14
f 18/11/14 17/9/14 26/1/14
f 19/13/14 18/11/14 26/1/14
f 20/15/14 19/13/14 26/1/14
f 21/17/14 20/15/14 26/1/14
f 22/19/14 21/17/14 26/1/14
f 23/21/14 22/19/14 26/1/14
f 24/23/14 23/21/14 26/1/14
f 13/25/14 24/23/14 26/1/14
o Cylinder
v 0.000000 3.000000 0.250000
v 0.176800 3.000000 0.176800
v 0.250000 3.000000 0.000000
v 0.176800 3.000000 -0.176800
v 0.000000 3.000000 -0.250000
v -0.176800 3.000000 -0.176800
v -0.250000 3.000000 0.000000
v -0.176800 3.000000 0.176800
v 0.000000 0.000000 0.250000
v 0.176800 0.000000 0.176800
v 0.250000 0.000000 0.000000
v 0.176800 0.000000 -0.176800
v 0.000000 0.000000 -0.250000
v -0.176800 0.000000 -0.176800
v -0.250000 0.000000 0.000000
v -0.176800 0.000000 0.176800
v 0.000000 3.000000 0.000000
v 0.000000 0.000000 0.000000
vt 0.000000 1.000000
vt 0.000000 0.000000
vt 0.125000 0.000000
vt 0.125000 1.000000
vt 0.250000 0.000000
vt 0.250000 1.000000
vt 0.375000 0.000000
vt 0.375000 1.000000
vt 0.500000 0.000000
vt 0.500000 1.000000
vt 0.625000 0.000000
vt 0.625000 1.000000
vt 0.750000 0.000000
vt 0.750000 1.000000
vt 0.875000 0.000000
vt 0.875000 1.000000
vt 1.000000 0.000000
vt 1.000000 1.000000
vn 0.382500 0.000000 0.923900
vn 0.923900 0.000000 0.382500
vn 0.923900 0.000000 -0.382500
vn 0.382500 0.000000 -0.923900
vn -0.382500 0.000000 -0.923900
vn -0.923900 0.000000 -0.382500
vn -0.923900 0.000000 0.382500
vn -0.382500 0.000000 0.923900
vn 0.000000 1.000000 0.000000
vn 0.000000 -1.000000 0.000000
usemtl CylinderDefault
s off
f 27/27/15 35/28/15 36/29/15 28/30/15
f 28/30/16 36/29/16 37/31/16 29/32/16
f 29/32/17 37/31/17 38/33/17 30/34/17
f 30/34/18 38/33/18 39/35/18 31/36/18
f 31/36/19 39/35/19 40/37/19 32/38/19
f 32/38/20 40/37/20 41/39/20 33/40/20
f 33/40/21 41/39/21 42/41/21 34/42/21
f 34/42/22 42/41/22 35/43/22 27/44/22
f 27/27/23 28/30/23 43/28/23
f 28/30/23 29/32/23 43/28/23
f 29/32/23 30/34/23 43/28/23
f 30/34/23 31/36/23 43/28/23
f 31/36/23 32/38/23 43/28/23
f 32/38/23 33/40/23 43/28/23
f 33/40/23 34/42/23 43/28/23
f 34/42/23 27/44/23 43/28/23
f 36/29/24 35/28/24 44/27/24
f 37/31/24 36/29/24 44/27/24
f 38/33/24 37/31/24 44/27/24
f 39/35/24 38/33/24 44/27/24
f 40/37/24 39/35/24 44/27/24
f 41/39/24 40/37/24 44/27/24
f 42/41/24 41/39/24 44/27/24
f 35/43/24 42/41/24 44/27/24
o Sphere
v 0.000000 3.461700 -0.000000
v 0.389313 3.427600 -0.000000
v 0.752150 3.327700 -0.000000
v 1.063691 3.168800 -0.000000
v 1.302724 2.961700 -0.000000
v 1.453003 2.720500 -0.000000
v 1.504300 2.461700 0.000000
v 1.453003 2.202900 0.000000
v 1.302724 1.961700 0.000000
v 1.063691 1.754600 0.000000
v 0.752150 1.595700 0.000000
v 0.389313 1.495800 0.000000
v 0.000000 1.461700 0.000000
v 0.337114 3.427600 0.194656
v 0.651362 3.327700 0.376075
v 0.921233 3.168800 0.531920
v 1.128225 2.961700 0.651362
v 1.258347 2.720500 0.726577
v 1.302724 2.461700 0.752150
v 1.258347 2.202900 0.726577
v 1.128225 1.961700 0.651362
v 0.921233 1.754600 0.531920
v 0.651362 1.595700 0.376075
v 0.337114 1.495800 0.194656
v 0.194656 3.427600 0.337114
v 0.376075 3.327700 0.651362
v 0.531920 3.168800 0.921233
v 0.651362 2.961700 1.128225
v 0.726577 2.720500 1.258347
v 0.752150 2.461700 1.302724
v 0.726577 2.202900 1.258347
v 0.651362 1.961700 1.128225
v 0.531920 1.754600 0.921233
v 0.376075 1.595700 0.651362
v 0.194656 1.495800 0.337114
v 0.000000 3.427600 0.389313
v 0.000000 3.327700 0.752150
v 0.000000 3.168800 1.063691
v 0.000000 2.961700 1.302724
v 0.000000 2.720500 1.453003
v 0.000000 2.461700 1.504300
v 0.000000 2.202900 1.453003
v 0.000000 1.961700 1.302724
v 0.000000 1.754600 1.063691
v 0.000000 1.595700 0.752150
v 0.000000 1.495800 0.389313
v -0.194656 3.427600 0.337114
v -0.376075 3.327700 0.651362
v -0.531920 3.168800 0.921233
v -0.651362 2.961700 1.128225
v -0.726577 2.720500 1.258347
v -0.752150 2.461700 1.302724
v -0.726577 2.202900 1.258347
v -0.651362 1.961700 1.128225
v -0.531920 1.754600 0.921233
v -0.376075 1.595700 0.651362
v -0.194656 1.495800 0.337114
v -0.337114 3.427600 0.194656
v -0.651362 3.327700 0.376075
v -0.921233 3.168800 0.531920
v -1.128225 2.961700 0.651362
v -1.258347 2.720500 0.726577
v -1.302724 2.461700 0.752150
v -1.258347 2.202900 0.726577
v -1.128225 1.961700 0.651362
v -0.921233 1.754600 0.531920
v -0.651362 1.595700 0.376075
v -0.337114 1.495800 0.194656
v -0.389313 3.427600 -0.000000
v -0.752150 3.327700 -0.000000
v -1.063691 3.168800 -0.000000
v -1.302724 2.961700 -0.000000
v -1.453003 2.720500 -0.000000
v -1.504300 2.461700 0.000000
v -1.453003 2.202900 0.000000
v -1.302724 1.961700 0.000000
v -1.063691 1.754600 0.000000
v -0.752150 1.595700 0.000000
v -0.389313 1.495800 0.000000
v -0.337114 3.427600 -0.194656
v -0.651362 3.327700 -0.376075
v -0.921233 3.168800 -0.531920
v -1.128225 2.961700 -0.651362
v -1.258347 2.720500 -0.726577
v -1.302724 2.461700 -0.752150
v -1.258347 2.202900 -0.726577
v -1.128225 1.961700 -0.651362
v -0.921233 1.754600 -0.531920
v -0.651362 1.595700 -0.376075
v -0.337114 1.495800 -0.194656
v -0.194656 3.427600 -0.337114
v -0.376075 3.327700 -0.651362
v -0.531920 3.168800 -0.921233
v -0.651362 2.961700 -1.128225
v -0.726577 2.720500 -1.258347
v -0.752150 2.461700 -1.302724
v -0.726577 2.202900 -1.258347
v -0.651362 1.961700 -1.128225
v -0.531920 1.754600 -0.921233
v -0.376075 1.595700 -0.651362
v -0.194656 1.495800 -0.337114
v 0.000000 3.427600 -0.389313
v 0.000000 3.327700 -0.752150
v 0.000000 3.168800 -1.063691
v 0.000000 2.961700 -1.302724
v 0.000000 2.720500 -1.453003
v 0.000000 2.461700 -1.504300
v 0.000000 2.202900 -1.453003
v 0.000000 1.961700 -1.302724
v 0.000000 1.754600 -1.063691
v 0.000000 1.595700 -0.752150
v 0.000000 1.495800 -0.389313
v 0.194656 3.427600 -0.337114
v 0.376075 3.327700 -0.651362
v 0.531920 3.168800 -0.921233
v 0.651362 2.961700 -1.128225
v 0.726577 2.720500 -1.258347
v 0.752150 2.461700 -1.302724
v 0.726577 2.202900 -1.258347
v 0.651362 1.961700 -1.128225
v 0.531920 1.754600 -0.921233
v 0.376075 1.595700 -0.651362
v 0.194656 1.495800 -0.337114
v 0.337114 3.427600 -0.194656
v 0.651362 3.327700 -0.376075
v 0.921233 3.168800 -0.531920
v 1.128225 2.961700 -0.651362
v 1.258347 2.720500 -0.726577
v 1.302724 2.461700 -0.752150
v 1.258347 2.202900 -0.726577
v 1.128225 1.961700 -0.651362
v 0.921233 1.754600 -0.531920
v 0.651362 1.595700 -0.376075
v 0.337114 1.495800 -0.194656
vt 0.000000 0.000000
vt 0.083333 0.083333
vt 0.000000 0.083333
vt 0.083333 0.166667
vt 0.000000 0.166667
vt 0.083333 0.250000
vt 0.000000 0.250000
vt 0.083333 0.333333
vt 0.000000 0.333333
vt 0.083333 0.416667
vt 0.000000 0.416667
vt 0.083333 0.500000
vt 0.000000 0.500000
vt 0.083333 0.583333
vt 0.000000 0.583333
vt 0.083333 0.666667
vt 0.000000 0.666667
vt 0.083333 0.750000
vt 0.000000 0.750000
vt 0.083333 0.833333
vt 0.000000 0.833333
vt 0.083333 0.916667
vt 0.000000 0.916667
vt 0.083333 1.000000
vt 0.083333 0.000000
vt 0.166667 0.083333
vt 0.166667 0.166667
vt 0.166667 0.250000
vt 0.166667 0.333333
vt 0.166667 0.416667
vt 0.166667 0.500000
vt 0.166667 0.583333
vt 0.166667 0.666667
vt 0.166667 0.750000
vt 0.166667 0.833333
vt 0.166667 0.916667
vt 0.166667 1.000000
vt 0.166667 0.000000
vt 0.250000 0.083333
vt 0.250000 0.166667
vt 0.250000 0.250000
vt 0.250000 0.333333
vt 0.250000 0.416667
vt 0.250000 0.500000
vt 0.250000 0.583333
vt 0.250000 0.666667
vt 0.250000 0.750000
vt 0.250000 0.833333
vt 0.250000 0.916667
vt 0.250000 1.000000
vt 0.250000 0.000000
vt 0.333333 0.083333
vt 0.333333 0.166667
vt 0.333333 0.250000
vt 0.333333 0.333333
vt 0.333333 0.416667
vt 0.333333 0.500000
vt 0.333333 0.583333
vt 0.333333 0.666667
vt 0.333333 0.750000
vt 0.333333 0.833333
vt 0.333333 0.916667
vt 0.333333 1.000000
vt 0.333333 0.000000
vt 0.416667 0.083333
vt 0.416667 0.166667
vt 0.416667 0.250000
vt 0.416667 0.333333
vt 0.416667 0.416667
vt 0.416667 0.500000
vt 0.416667 0.583333
vt 0.416667 0.666667
vt 0.416667 0.750000
vt 0.416667 0.833333
vt 0.416667 0.916667
vt 0.416667 1.000000
vt 0.416667 0.000000
vt 0.500000 0.083333
vt 0.500000 0.166667
vt 0.500000 0.250000
vt 0.500000 0.333333
vt 0.500000 0.416667
vt 0.500000 0.500000
vt 0.500000 0.583333
vt 0.500000 0.666667
vt 0.500000 0.750000
vt 0.500000 0.833333
vt 0.500000 0.916667
vt 0.500000 1.000000
vt 0.500000 0.000000
vt 0.583333 0.083333
vt 0.583333 0.166667
vt 0.583333 0.250000
vt 0.583333 0.333333
vt 0.583333 0.416667
vt 0.583333 0.500000
vt 0.583333 0.583333
vt 0.583333 0.666667
vt 0.583333 0.750000
vt 0.583333 0.833333
vt 0.583333 0.916667
vt 0.583333 1.000000
vt 0.583333 0.000000
vt 0.666667 0.083333
vt 0.666667 0.166667
vt 0.666667 0.250000
vt 0.666667 0.333333
vt 0.666667 0.416667
vt 0.666667 0.500000
vt 0.666667 0.583333
vt 0.666667 0.666667
vt 0.666667 0.750000
vt 0.666667 0.833333
vt 0.666667 0.916667
vt 0.666667 1.000000
vt 0.666667 0.000000
vt 0.750000 0.083333
vt 0.750000 0.166667
vt 0.750000 0.250000
vt 0.750000 0.333333
vt 0.750000 0.416667
vt 0.750000 0.500000
vt 0.750000 0.583333
vt 0.750000 0.666667
vt 0.750000 0.750000
vt 0.750000 0.833333
vt 0.750000 0.916667
vt 0.750000 1.000000
vt 0.750000 0.000000
vt 0.833333 0.083333
vt 0.833333 0.166667
vt 0.833333 0.250000
vt 0.833333 0.333333
vt 0.833333 0.416667
vt 0.833333 0.500000
vt 0.833333 0.583333
vt 0.833333 0.666667
vt 0.833333 0.750000
vt 0.833333 0.833333
vt 0.833333 0.916667
vt 0.833333 1.000000
vt 0.833333 0.000000
vt 0.916667 0.083333
vt 0.916667 0.166667
vt 0.916667 0.250000
vt 0.916667 0.333333
vt 0.916667 0.416667
vt 0.916667 0.500000
vt 0.916667 0.583333
vt 0.916667 0.666667
vt 0.916667 0.750000
vt 0.916667 0.833333
vt 0.916667 0.916667
vt 0.916667 1.000000
vt 0.916667 0.000000
vt 1.000000 0.083333
vt 1.000000 0.166667
vt 1.000000 0.250000
vt 1.000000 0.333333
vt 1.000000 0.416667
vt 1.000000 0.500000
vt 1.000000 0.583333
vt 1.000000 0.666667
vt 1.000000 0.750000
vt 1.000000 0.833333
vt 1.000000 0.916667
vt 1.000000 1.000000
vn 0.087200 0.995900 0.023400
vn 0.264800 0.961700 0.071000
vn 0.451000 0.884300 0.120800
vn 0.645000 0.744400 0.172800
vn 0.827600 0.515600 0.221700
vn 0.948700 0.187900 0.254200
vn 0.948700 -0.187900 0.254200
vn 0.827600 -0.515600 0.221700
vn 0.645000 -0.744400 0.172800
vn 0.451000 -0.884300 0.120800
vn 0.264800 -0.961700 0.071000
vn 0.087200 -0.995900 0.023400
vn 0.063900 0.995900 0.063900
vn 0.193800 0.961700 0.193800
vn 0.330100 0.884400 0.330100
vn 0.472200 0.744300 0.472200
vn 0.605800 0.515700 0.605800
vn 0.694500 0.187700 0.694500
vn 0.694500 -0.187700 0.694500
vn 0.605800 -0.515700 0.605800
vn 0.472200 -0.744300 0.472200
vn 0.330100 -0.884400 0.330100
vn 0.193800 -0.961700 0.193800
vn 0.063900 -0.995900 0.063900
vn 0.023400 0.995900 0.087200
vn 0.071000 0.961700 0.264800
vn 0.120800 0.884300 0.451000
vn 0.172800 0.744400 0.645000
vn 0.221700 0.515600 0.827600
vn 0.254200 0.187900 0.948700
vn 0.254200 -0.187900 0.948700
vn 0.221700 -0.515600 0.827600
vn 0.172800 -0.744400 0.645000
vn 0.120800 -0.884300 0.451000
vn 0.071000 -0.961700 0.264800
vn 0.023400 -0.995900 0.087200
vn -0.023400 0.995900 0.087200
vn -0.071000 0.961700 0.264800
vn -0.120800 0.884300 0.451000
vn -0.172800 0.744400 0.645000
vn -0.221700 0.515600 0.827600
vn -0.254200 0.187900 0.948700
vn -0.254200 -0.187900 0.948700
vn -0.221700 -0.515600 0.827600
vn -0.172800 -0.744400 0.645000
vn -0.120800 -0.884300 0.451000
vn -0.071000 -0.961700 0.264800
vn -0.023400 -0.995900 0.087200
vn -0.063900 0.995900 0.063900
vn -0.193800 0.961700 0.193800
vn -0.330100 0.884400 0.330100
vn -0.472200 0.744300 0.472200
vn -0.605800 0.515700 0.605800
vn -0.694500 0.187700 0.694500
vn -0.694500 -0.187700 0.694500
vn -0.605800 -0.515700 0.605800
vn -0.472200 -0.744300 0.472200
vn -0.330100 -0.884400 0.330100
vn -0.193800 -0.961700 0.193800
vn -0.063900 -0.995900 0.063900
vn -0.087200 0.995900 0.023400
vn -0.264800 0.961700 0.071000
vn -0.451000 0.884300 0.120800
vn -0.645000 0.744400 0.172800
vn -0.827600 0.515600 0.221700
vn -0.948700 0.187900 0.254200
vn -0.948700 -0.187900 0.254200
vn -0.827600 -0.515600 0.221700
vn -0.645000 -0.744400 0.172800
vn -0.451000 -0.884300 0.120800
vn -0.264800 -0.961700 0.071000
vn -0.087200 -0.995900 0.023400
vn -0.087200 0.995900 -0.023400
vn -0.264800 0.961700 -0.071000
vn -0.451000 0.884300 -0.120800
vn -0.645000 0.744400 -0.172800
vn -0.827600 0.515600 -0.221700
vn -0.948700 0.187900 -0.254200
vn -0.948700 -0.187900 -0.254200
vn -0.827600 -0.515600 -0.221700
vn -0.645000 -0.744400 -0.172800
vn -0.451000 -0.884300 -0.120800
vn -0.264800 -0.961700 -0.071000
vn -0.087200 -0.995900 -0.023400
vn -0.063900 0.995900 -0.063900
vn -0.193800 0.961700 -0.193800
vn -0.330100 0.884400 -0.330100
vn -0.472200 0.744300 -0.472200
vn -0.605800 0.515700 -0.605800
vn -0.694500 0.187700 -0.694500
vn -0.694500 -0.187700 -0.694500
vn -0.605800 -0.515700 -0.605800
vn -0.472200 -0.744300 -0.472200
vn -0.330100 -0.884400 -0.330100
vn -0.193800 -0.961700 -0.193800
vn -0.063900 -0.995900 -0.063900
vn -0.023400 0.995900 -0.087200
vn -0.071000 0.961700 -0.264800
vn -0.120800 0.884300 -0.451000
vn -0.172800 0.744400 -0.645000
vn -0.221700 0.515600 -0.827600
vn -0.254200 0.187900 -0.948700
vn -0.254200 -0.187900 -0.948700
vn -0.221700 -0.515600 -0.827600
vn -0.172800 -0.744400 -0.645000
vn -0.120800 -0.884300 -0.451000
vn -0.071000 -0.961700 -0.264800
vn -0.023400 -0.995900 -0.087200
vn 0.023400 0.995900 -0.087200
vn 0.071000 0.961700 -0.264800
vn 0.120800 0.884300 -0.451000
vn 0.172800 0.744400 -0.645000
vn 0.221700 0.515600 -0.827600
vn 0.254200 0.187900 -0.948700
vn 0.254200 -0.187900 -0.948700
vn 0.221700 -0.515600 -0.827600
vn 0.172800 -0.744400 -0.645000
vn 0.120800 -0.884300 -0.451000
vn 0.071000 -0.961700 -0.264800
vn 0.023400 -0.995900 -0.087200
vn 0.063900 0.995900 -0.063900
vn 0.193800 0.961700 -0.193800
vn 0.330100 0.884400 -0.330100
vn 0.472200 0.744300 -0.472200
vn 0.605800 0.515700 -0.605800
vn 0.694500 0.187700 -0.694500
vn 0.694500 -0.187700 -0.694500
vn 0.605800 -0.515700 -0.605800
vn 0.472200 -0.744300 -0.472200
vn 0.330100 -0.884400 -0.330100
vn 0.193800 -0.961700 -0.193800
vn 0.063900 -0.995900 -0.063900
vn 0.087200 0.995900 -0.023400
vn 0.264800 0.961700 -0.071000
vn 0.451000 0.884300 -0.120800
vn 0.645000 0.744400 -0.172800
vn 0.827600 0.515600 -0.221700
vn 0.948700 0.187900 -0.254200
vn 0.948700 -0.187900 -0.254200
vn 0.827600 -0.515600 -0.221700
vn 0.645000 -0.744400 -0.172800
vn 0.451000 -0.884300 -0.120800
vn 0.264800 -0.961700 -0.071000
vn 0.087200 -0.995900 -0.023400
usemtl SphereDefault
s off
f 45/45/25 58/46/25 46/47/25
f 46/47/26 58/46/26 59/48/26 47/49/26
f 47/49/27 59/48/27 60/50/27 48/51/27
f 48/51/28 60/50/28 61/52/28 49/53/28
f 49/53/29 61/52/29 62/54/29 50/55/29
f 50/55/30 62/54/30 63/56/30 51/57/30
f 51/57/31 63/56/31 64/58/31 52/59/31
f 52/59/32 64/58/32 65/60/32 53/61/32
f 53/61/33 65/60/33 66/62/33 54/63/33
f 54/63/34 66/62/34 67/64/34 55/65/34
f 55/65/35 67/64/35 68/66/35 56/67/35
f 56/67/36 68/66/36 57/68/36
f 45/69/37 69/70/37 58/46/37
f 58/46/38 69/70/38 70/71/38 59/48/38
f 59/48/39 70/71/39 71/72/39 60/50/39
f 60/50/40 71/72/40 72/73/40 61/52/40
f 61/52/41 72/73/41 73/74/41 62/54/41
f 62/54/42 73/74/42 74/75/42 63/56/42
f 63/56/43 74/75/43 75/76/43 64/58/43
f 64/58/44 75/76/44 76/77/44 65/60/44
f 65/60/45 76/77/45 77/78/45 66/62/45
f 66/62/46 77/78/46 78/79/46 67/64/46
f 67/64/47 78/79/47 79/80/47 68/66/47
f 68/66/48 79/80/48 57/81/48
f 45/82/49 80/83/49 69/70/49
f 69/70/50 80/83/50 81/84/50 70/71/50
f 70/71/51 81/84/51 82/85/51 71/72/51
f 71/72/52 82/85/52 83/86/52 72/73/52
f 72/73/53 83/86/53 84/87/53 73/74/53
f 73/74/54 84/87/54 85/88/54 74/75/54
f 74/75/55 85/88/55 86/89/55 75/76/55
f 75/76/56 86/89/56 87/90/56 76/77/56
f 76/77/57 87/90/57 88/91/57 77/78/57
f 77/78/58 88/91/58 89/92/58 78/79/58
f 78/79/59 89/92/59 90/93/59 79/80/59
f 79/80/60 90/93/60 57/94/60
f 45/95/61 91/96/61 80/83/61
f 80/83/62 91/96/62 92/97/62 81/84/62
f 81/84/63 92/97/63 93/98/63 82/85/63
f 82/85/64 93/98/64 94/99/64 83/86/64
f 83/86/65 94/99/65 95/100/65 84/87/65
f 84/87/66 95/100/66 96/101/66 85/88/66
f 85/88/67 96/101/67 97/102/67 86/89/67
f 86/89/68 97/102/68 98/103/68 87/90/68
f 87/90/69 98/103/69 99/104/69 88/91/69
f 88/91/70 99/104/70 100/105/70 89/92/70
f 89/92/71 100/105/71 101/106/71 90/93/71
f 90/93/72 101/106/72 57/107/72
f 45/108/73 102/109/73 91/96/73
f 91/96/74 102/109/74 103/110/74 92/97/74
f 92/97/75 103/110/75 104/111/75 93/98/75
f 93/98/76 104/111/76 105/112/76 94/99/76
f 94/99/77 105/112/77 106/113/77 95/100/77
f 95/100/78 106/113/78 107/114/78 96/101/78
f 96/101/79 107/114/79 108/115/79 97/102/79
f 97/102/80 108/115/80 109/116/80 98/103/80
f 98/103/81 109/116/81 110/117/81 99/104/81
f 99/104/82 110/117/82 111/118/82 100/105/82
f 100/105/83 111/118/83 112/119/83 101/106/83
f 101/106/84 112/119/84 57/120/84
f 45/121/85 113/122/85 102/109/85
f 102/109/86 113/122/86 114/123/86 103/110/86
f 103/110/87 114/123/87 115/124/87 104/111/87
f 104/111/88 115/124/88 116/125/88 105/112/88
f 105/112/89 116/125/89 117/126/89 106/113/89
f 106/113/90 117/126/90 118/127/90 107/114/90
f 107/114/91 118/127/91 119/128/91 108/115/91
f 108/115/92 119/128/92 120/129/92 109/116/92
f 109/116/93 120/129/93 121/130/93 110/117/93
f 110/117/94 121/130/94 122/131/94 111/118/94
f 111/118/95 122/131/95 123/132/95 112/119/95
f 112/119/96 123/132/96 57/133/96
f 45/134/97 124/135/97 113/122/97
f 113/122/98 124/135/98 125/136/98 114/123/98
f 114/123/99 125/136/99 126/137/99 115/124/99
f 115/124/100 126/137/100 127/138/100 116/125/100
f 116/125/101 127/138/101 128/139/101 117/126/101
f 117/126/102 128/139/102 129/140/102 118/127/102
f 118/127/103 129/140/103 130/141/103 119/128/103
f 119/128/104 130/141/104 131/142/104 120/129/104
f 120/129/105 131/142/105 132/143/105 121/130/105
f 121/130/106 132/143/106 133/144/106 122/131/106
f 122/131/107 133/144/107 134/145/107 123/132/107
f 123/132/108 134/145/108 57/146/108
f 45/147/109 135/148/109 124/135/109
f 124/135/110 135/148/110 136/149/110 125/136/110
f 125/136/111 136/149/111 137/150/111 126/137/111
f 126/137/112 137/150/112 138/151/112 127/138/112
f 127/138/113 138/151/113 139/152/113 128/139/113
f 128/139/114 139/152/114 140/153/114 129/140/114
f 129/140/115 140/153/115 141/154/115 130/141/115
f 130/141/116 141/154/116 142/155/116 131/142/116
f 131/142/117 142/155/117 143/156/117 132/143/117
f 132/143/118 143/156/118 144/157/118 133/144/118
f 133/144/119 144/157/119 145/158/119 134/145/119
f 134/145/120 145/158/120 57/159/120
f 45/160/121 146/161/121 135/148/121
f 135/148/122 146/161/122 147/162/122 136/149/122
f 136/149/123 147/162/123 148/163/123 137/150/123
f 137/150/124 148/163/124 149/164/124 138/151/124
f 138/151/125 149/164/125 150/165/125 139/152/125
f 139/152/126 150/165/126 151/166/126 140/153/126
f 140/153/127 151/166/127 152/167/127 141/154/127
f 141/154/128 152/167/128 153/168/128 142/155/128
f 142/155/129 153/168/129 154/169/129 143/156/129
f 143/156/130 154/169/130 155/170/130 144/157/130
f 144/157/131 155/170/131 156/171/131 145/158/131
f 145/158/132 156/171/132 57/172/132
f 45/173/133 157/174/133 146/161/133
f 146/161/134 157/174/134 158/175/134 147/162/134
f 147/162/135 158/175/135 159/176/135 148/163/135
f 148/163/136 159/176/136 160/177/136 149/164/136
f 149/164/137 160/177/137 161/178/137 150/165/137
f 150/165/138 161/178/138 162/179/138 151/166/138
f 151/166/139 162/179/139 163/180/139 152/167/139
f 152/167/140 163/180/140 164/181/140 153/168/140
f 153/168/141 164/181/141 165/182/141 154/169/141
f 154/169/142 165/182/142 166/183/142 155/170/142
f 155/170/143 166/183/143 167/184/143 156/171/143
f 156/171/144 167/184/144 57/185/144
f 45/186/145 168/187/145 157/174/145
f 157/174/146 168/187/146 169/188/146 158/175/146
f 158/175/147 169/188/147 170/189/147 159/176/147
f 159/176/148 170/189/148 171/190/148 160/177/148
f 160/177/149 171/190/149 172/191/149 161/178/149
f 161/178/150 172/191/150 173/192/150 162/179/150
f 162/179/151 173/192/151 174/193/151 163/180/151
f 163/180/152 174/193/152 175/194/152 164/181/152
f 164/181/153 175/194/153 176/195/153 165/182/153
f 165/182/154 176/195/154 177/196/154 166/183/154
f 166/183/155 177/196/155 178/197/155 167/184/155
f 167/184/156 178/197/156 57/198/156
f 45/199/157 46/200/157 168/187/157
f 168/187/158 46/200/158 47/201/158 169/188/158
f 169/188/159 47/201/159 48/202/159 170/189/159
f 170/189/160 48/202/160 49/203/160 171/190/160
f 171/190/161 49/203/161 50/204/161 172/191/161
f 172/191/162 50/204/162 51/205/162 173/192/162
f 173/192/163 51/205/163 52/206/163 174/193/163
f 174/193/164 52/206/164 53/207/164 175/194/164
f 175/194/165 53/207/165 54/208/165 176/195/165
f 176/195/166 54/208/166 55/209/166 177/196/166
f 177/196/167 55/209/167 56/210/167 178/197/167
f 178/197/168 56/210/168 57/211/168
